<?xml version="1.0" encoding="iso-8859-1"?>
<!-- Generator: Adobe Illustrator 19.0.1, SVG Export Plug-In . SVG Version: 6.00 Build 0)  -->
<svg version="1.1" xmlns="http://www.w3.org/2000/svg" xmlns:xlink="http://www.w3.org/1999/xlink" x="0px" y="0px"
	 viewBox="0 0 128 128" style="enable-background:new 0 0 128 128;" xml:space="preserve">
<g id="_x32_">
	<path id="icon_5_" style="fill:#262626;" d="M122.465,12.122H5.535C2.474,12.122,0,14.595,0,17.657v80.26
		c0,3.062,2.474,5.535,5.535,5.535h43.918l-0.692,4.359c0,0-0.242,2.647-2.647,4.411c-2.387,1.764-4.29,3.286-2.387,3.546
		c1.816,0.242,19.01,0.017,20.272,0c1.28,0.017,18.456,0.242,20.29,0c1.885-0.259-0.017-1.782-2.404-3.546
		c-2.404-1.764-2.647-4.411-2.647-4.411l-0.675-4.359h43.901c3.062,0,5.535-2.474,5.535-5.535v-80.26
		C128,14.595,125.526,12.122,122.465,12.122z M119.697,86.846H8.303V20.424h111.395V86.846z M26.294,58.468h11.069v20.758H26.294
		V58.468z M49.818,52.241h11.071v26.985H49.818V52.241z M71.96,48.09H83.03v31.136H71.96V48.09z M92.716,40.133h11.071v39.093
		H92.716V40.133z"/>
</g>
<g id="Layer_1">
</g>
</svg>
